:SAMPLES-PER-SECOND 30
:FULLY-SPECIFIED
:DEGREES
129
root  -39.6792 41.4292 -8.95605 -30.7657 -86.7424 29.3004
RightUpLeg  1.33506 -7.8257 -2.937
RightLeg  5.43662 -6.63842 3.81352
RightFoot  -3.53125 0.330294 -5.18156
RightToes  2.91037e-010 0 -3.6325e-017
Spine  3.73263 3.60018 7.28228
Spine1  11.2232 7.00209 -9.95313
HEad  -18.8463 -5.56395 1.89159
LeftShoulder1  9.52446 -14.4458 -46.285
LeftArm  -15.2188 11.7069 -23.6894
LeftForeArm  28.8214 -32.0382 -5.41547
LeftHand  -0.244104 0.0205437 5.32207
RightShoulder  7.84981 12.9076 41.5886
RightArm  -7.54531 24.1331 35.0153
RightForeArm  2.38529 71.1046 36.9455
RightHand  -2.74468 7.25433 -25.123
LeftUpLeg  -2.49337 2.77138 1.89444
LeftLeg  0.804684 3.98025 -2.78754
LeftFoot  3.51597 -0.0447863 0.180132
LeftToes  1.46425e-010 1.43544e-010 6.23391e-011
130
root  -39.7782 41.4416 -8.80093 -38.101 -87.1633 36.6904
RightUpLeg  1.4093 -7.92141 -3.29214
RightLeg  5.43366 -5.95898 3.79605
RightFoot  -3.63596 0.307577 -4.92636
RightToes  2.91037e-010 0 -3.6325e-017
Spine  3.51151 3.83234 7.06404
Spine1  11.633 7.0201 -9.09344
HEad  -18.2474 -5.44075 1.3379
LeftShoulder1  9.73538 -14.4972 -47.1992
LeftArm  -14.6635 10.9598 -23.2626
LeftForeArm  28.5005 -31.7088 -5.35454
LeftHand  -0.244104 0.0205437 5.32207
RightShoulder  7.7365 12.9543 40.8131
RightArm  -7.63704 24.1257 35.4586
RightForeArm  1.56151 70.6317 35.8419
RightHand  -2.77573 7.38572 -25.1455
LeftUpLeg  -2.1073 2.84848 1.69425
LeftLeg  0.447636 4.5037 -3.02327
LeftFoot  3.36538 -0.0777444 0.444562
LeftToes  1.46425e-010 1.43544e-010 6.23391e-011
131
root  -39.8622 41.4469 -8.63963 -45.4109 -87.4521 44.1296
RightUpLeg  1.34215 -8.0015 -3.60879
RightLeg  5.51641 -5.43461 3.74139
RightFoot  -3.75626 0.286885 -4.70564
RightToes  2.91037e-010 0 -3.6325e-017
Spine  3.28517 3.95774 7.19056
Spine1  11.9076 7.11927 -8.94783
HEad  -17.384 -5.50431 1.09314
LeftShoulder1  9.7789 -14.5036 -47.3966
LeftArm  -13.7985 10.3781 -23.1648
LeftForeArm  28.5171 -31.0604 -5.19882
LeftHand  -0.244104 0.0205437 5.32207
RightShoulder  7.62243 12.9182 40.2554
RightArm  -6.81586 24.5241 35.4863
RightForeArm  -2.88416 68.7965 32.2151
RightHand  -2.84088 7.78442 -24.968
LeftUpLeg  -1.98794 2.81648 1.43576
LeftLeg  0.349399 5.02576 -3.14618
LeftFoot  3.1378 -0.103256 0.663144
LeftToes  1.46425e-010 1.43544e-010 6.23391e-011
132
root  -39.9352 41.4475 -8.48078 -49.8867 -87.5976 48.7735
RightUpLeg  1.22167 -8.04487 -3.84412
RightLeg  5.60732 -5.14342 3.64653
RightFoot  -3.87343 0.265125 -4.46092
RightToes  2.91037e-010 0 -3.6325e-017
Spine  3.05209 3.93011 7.59601
Spine1  12.1743 7.23206 -9.39217
HEad  -16.4487 -5.59834 1.02277
LeftShoulder1  9.70491 -14.5075 -47.0202
LeftArm  -12.8525 10.1198 -23.3275
LeftForeArm  28.5683 -30.2876 -5.01457
LeftHand  -0.244104 0.0205437 5.32207
RightShoulder  7.61046 12.9088 40.2116
RightArm  -5.68302 24.9933 34.9634
RightForeArm  -7.37105 66.5283 28.5905
RightHand  -2.89596 8.12391 -24.8214
LeftUpLeg  -2.08817 2.69256 1.16457
LeftLeg  0.490828 5.41686 -3.14801
LeftFoot  2.88577 -0.118293 0.807841
LeftToes  1.46425e-010 1.43544e-010 6.23391e-011
133
root  -40.0034 41.4452 -8.32758 -53.606 -87.7184 52.5703
RightUpLeg  1.2087 -8.09868 -4.06773
RightLeg  5.67203 -4.86964 3.57291
RightFoot  -3.99574 0.241865 -4.17418
RightToes  2.91037e-010 0 -3.6325e-017
Spine  2.95149 3.92222 8.01226
Spine1  12.4859 7.3536 -9.73664
HEad  -15.5928 -5.68284 0.948237
LeftShoulder1  9.7143 -14.5583 -46.9313
LeftArm  -11.8873 10.0609 -23.3881
LeftForeArm  28.4422 -29.2739 -4.78789
LeftHand  -0.244104 0.0205437 5.32207
RightShoulder  7.61443 12.9564 40.107
RightArm  -4.74234 25.2245 34.1218
RightForeArm  -10.0927 64.5497 25.9741
RightHand  -2.91783 8.24476 -24.7896
LeftUpLeg  -2.13598 2.59747 0.936735
LeftLeg  0.71887 5.72563 -3.13951
LeftFoot  2.56933 -0.129058 0.930594
LeftToes  1.46425e-010 1.43544e-010 6.23391e-011
134
root  -40.0742 41.4431 -8.1818 -59.953 -87.8622 58.9392
RightUpLeg  1.25841 -8.15848 -4.31321
RightLeg  5.71797 -4.49441 3.52317
RightFoot  -4.11161 0.22189 -3.89806
RightToes  2.91037e-010 0 -3.6325e-017
Spine  2.93004 3.97799 8.20862
Spine1  12.7759 7.44118 -9.72883
HEad  -14.68 -5.73758 0.835244
LeftShoulder1  9.78108 -14.5796 -47.2043
LeftArm  -11.1245 10.2492 -23.3969
LeftForeArm  28.03 -28.0443 -4.53281
LeftHand  -0.244104 0.0205437 5.32207
RightShoulder  7.58175 12.9824 39.8496
RightArm  -3.44922 25.584 33.1597
RightForeArm  -12.5727 62.6302 23.8529
RightHand  -2.96648 8.37659 -24.9549
LeftUpLeg  -2.05173 2.60255 0.761999
LeftLeg  0.854338 6.02874 -3.22653
LeftFoot  2.22837 -0.141979 1.07994
LeftToes  1.46425e-010 1.43544e-010 6.23391e-011
135
root  -40.1494 41.4429 -8.04626 -68.3418 -87.9912 67.419
RightUpLeg  1.22915 -8.18249 -4.52969
RightLeg  5.75442 -4.10312 3.46186
RightFoot  -4.17928 0.206206 -3.67669
RightToes  2.91037e-010 0 -3.6325e-017
Spine  2.74374 4.02459 8.15999
Spine1  13.115 7.45733 -9.55183
HEad  -13.4616 -5.78578 0.648006
LeftShoulder1  9.77609 -14.5116 -47.3613
LeftArm  -10.621 10.7216 -23.6162
LeftForeArm  27.2267 -26.6214 -4.26198
LeftHand  -0.244104 0.0205437 5.32207
RightShoulder  7.5449 12.957 39.7045
RightArm  -1.35915 26.4049 32.1332
RightForeArm  -16.0341 60.7083 22.1022
RightHand  -2.99574 8.45624 -25.0523
LeftUpLeg  -1.97584 2.64036 0.611931
LeftLeg  0.856668 6.34402 -3.36314
LeftFoot  1.9761 -0.158431 1.25257
LeftToes  1.46425e-010 1.43544e-010 6.23391e-011
